<?xml version="1.0" encoding="UTF-8" standalone="no"?>
<!-- Creator: CorelDRAW -->

<svg
   xmlns:dc="http://purl.org/dc/elements/1.1/"
   xmlns:cc="http://creativecommons.org/ns#"
   xmlns:rdf="http://www.w3.org/1999/02/22-rdf-syntax-ns#"
   xmlns:svg="http://www.w3.org/2000/svg"
   xmlns="http://www.w3.org/2000/svg"
   xmlns:sodipodi="http://sodipodi.sourceforge.net/DTD/sodipodi-0.dtd"
   xmlns:inkscape="http://www.inkscape.org/namespaces/inkscape"
   xml:space="preserve"
   width="210mm"
   height="297mm"
   style="shape-rendering:geometricPrecision; text-rendering:geometricPrecision; image-rendering:optimizeQuality; fill-rule:evenodd; clip-rule:evenodd"
   viewBox="0 0 210 297"
   id="svg2"
   version="1.1"
   inkscape:version="0.48.0 r9654"
   sodipodi:docname="owl.svg"><title
   id="title3001">Scopus Logo</title><metadata
   id="metadata24"><rdf:RDF><cc:Work
       rdf:about=""><dc:format>image/svg+xml</dc:format><dc:type
         rdf:resource="http://purl.org/dc/dcmitype/StillImage" /><dc:title>Scopus Logo</dc:title></cc:Work></rdf:RDF></metadata><sodipodi:namedview
   pagecolor="#ffffff"
   bordercolor="#666666"
   borderopacity="1"
   objecttolerance="10"
   gridtolerance="10"
   guidetolerance="10"
   inkscape:pageopacity="0"
   inkscape:pageshadow="2"
   inkscape:window-width="1680"
   inkscape:window-height="988"
   id="namedview22"
   showgrid="false"
   inkscape:zoom="0.76904178"
   inkscape:cx="1188.411"
   inkscape:cy="456.26531"
   inkscape:window-x="-8"
   inkscape:window-y="-8"
   inkscape:window-maximized="1"
   inkscape:current-layer="svg2" />
 <defs
   id="defs4">
  <style
   type="text/css"
   id="style6">
   
    .str0 {stroke:#1F1A17;stroke-width:0.0762}
    .str1 {stroke:#1F1A17}
    .fil2 {fill:none}
    .fil1 {fill:#1F1A17}
    .fil0 {fill:black}
   
  </style>
 </defs>
 <g
   id="Слой_x0020_1">
  <metadata
   id="CorelCorpID_0Corel-Layer" />
  <path
   class="fil0"
   d="m 65.1365,48.1672 c 6.2988,0.1403 18.9025,7.136 19.05,13.7583 l 0.7055,0 c 0,-7.0499 11.1028,-13.7583 17.9917,-13.7583 2.3083,0 5.2916,25.9829 5.2916,31.3972 0,12.3105 -3.3843,22.6274 -9.6126,28.8401 -9.5973,9.5732 -13.504542,8.87412 -23.873142,1.28392 C 67.685458,104.56122 63.6734,93.611 62.0364,83.0173 c -0.9216,-5.9645 -0.0265,-12.6526 0.278,-18.2695 0.3075,-5.6725 2.417,-11.712 2.8221,-16.5806 z M 60.8018,41.1757 63.190022,44.403205 60.9135,43.209 62.451,46.3308 59.9309,44.5316 c 0.3127,1.6011 2.0306,2.6201 2.0306,5.0467 0,1.3093 -0.793426,1.028738 -2.947877,15.105013 -0.674,3.6731 -0.489957,3.540921 -0.941187,7.08733 -0.252063,5.634477 -0.184782,5.67547 0.296845,10.124877 0.390689,3.609292 1.473737,8.304407 2.525737,10.770407 3.3117,7.763303 16.089883,24.998473 25.408183,24.998473 l 0.3527,0 c 7.134,0 15.417499,-10.5189 18.224099,-15.6426 3.615,-6.5993 7.5287,-16.0118 7.5287,-25.9852 l 0,-1.4111 c 0,-11.2513 -2.9137,-18.1181 -4.9389,-26.8111 l 2.1212,-3.8779 -2.54901,1.861977 1.85471,-3.266577 -2.41263,1.589187 1.77743,-2.963087 c -0.41,0.0401 -8.469399,5.3826 -10.908699,6.4172 -3.3804,1.4337 -9.0373,3.767 -13.5191,3.767 -4.4361,0 -9.8243,-2.0753 -12.9348,-3.6457 -4.9356,-2.492 -6.1049,-3.9794 -10.097101,-6.5208 z"
   id="path10"
   inkscape:connector-curvature="0"
   style="fill:#000000"
   sodipodi:nodetypes="cccsssscsccccccsccscsscsscccccccscc" />
  <path
   class="fil0"
   d="M81.0115 69.3339l0 0.3527c0,2.2498 1.4888,6.35 3.175,6.35 1.9993,0 3.5278,-3.8867 3.5278,-5.9972l0 -0.7055c0,-1.7437 -1.4314,-3.175 -3.175,-3.175l-0.3528 0c-1.7437,0 -3.175,1.4313 -3.175,3.175z"
   id="path12" />
  <circle
   class="fil1 str0"
   cx="73.074"
   cy="62.6311"
   r="1.7545"
   id="circle14" />
  <circle
   class="fil1 str0"
   cx="95.394"
   cy="62.5497"
   r="1.7545"
   id="circle16" />
  <circle
   class="fil2 str1"
   cx="95.394"
   cy="62.5497"
   r="8.8891"
   id="circle18" />
  <circle
   class="fil2 str1"
   cx="73.074"
   cy="62.6311"
   r="8.8891"
   id="circle20" />
 </g>
</svg>